<?xml version="1.0" encoding="UTF-8"?>
<svg width="20px" height="22px" viewBox="0 0 20 22" version="1.1" xmlns="http://www.w3.org/2000/svg" xmlns:xlink="http://www.w3.org/1999/xlink">
    <!-- Generator: Sketch 48.2 (47327) - http://www.bohemiancoding.com/sketch -->
    <title>icon-shopping-bag</title>
    <desc>Created with Sketch.</desc>
    <defs></defs>
    <g id="maggie-home-05" stroke="none" stroke-width="1" fill="none" fill-rule="evenodd" transform="translate(-1201.000000, -1328.000000)">
        <path d="M1219.75331,1333.10406 C1219.74164,1332.00961 1218.83646,1331.1218 1217.72553,1331.1218 L1214.36448,1331.1218 C1214.09173,1329.37502 1212.55477,1328 1210.70537,1328 C1208.85547,1328 1207.31808,1329.37502 1207.04526,1331.1218 L1203.68883,1331.1218 C1202.57822,1331.1218 1201.67333,1332.00963 1201.66167,1333.1041 L1201.00083,1347.92871 C1201,1349.07351 1201.90965,1349.97411 1203.0278,1349.97411 L1218.38766,1349.97411 C1219.50574,1349.97411 1220.41538,1349.07377 1220.41538,1347.9669 C1220.41537,1347.9543 1219.75331,1333.10406 1219.75331,1333.10406 Z M1210.70537,1329.70979 C1211.60132,1329.70979 1212.35976,1330.30662 1212.60316,1331.12179 L1208.80661,1331.12179 C1209.05014,1330.30663 1209.80896,1329.70979 1210.70537,1329.70979 Z M1218.38765,1348.26616 L1203.0278,1348.26616 C1202.86083,1348.26616 1202.72912,1348.14136 1202.72244,1347.9807 L1203.38286,1333.16476 C1203.38342,1333.1522 1203.3837,1333.13745 1203.3837,1333.12486 C1203.3837,1332.96059 1203.51771,1332.82977 1203.68882,1332.82977 L1206.99508,1332.82977 L1206.99508,1335.95404 C1206.99508,1336.42619 1207.37968,1336.80893 1207.85524,1336.80893 C1208.33081,1336.80893 1208.71541,1336.42619 1208.71541,1335.95404 L1208.71541,1332.82977 L1212.67737,1332.82977 L1212.67737,1335.95404 C1212.67737,1336.42619 1213.06197,1336.80893 1213.53754,1336.80893 C1214.0131,1336.80893 1214.3977,1336.42619 1214.3977,1335.95404 L1214.3977,1332.82977 L1217.72553,1332.82977 C1217.89695,1332.82977 1218.03124,1332.96039 1218.03124,1333.12465 C1218.03124,1333.13725 1218.03151,1333.15083 1218.03207,1333.16344 L1218.69291,1347.98027 C1218.68623,1348.14088 1218.55455,1348.26616 1218.38765,1348.26616 Z" id="icon-shopping-bag" fill="#F9F8F5"></path>
    </g>
</svg>