<?xml version="1.0" encoding="UTF-8"?>
<svg width="32px" height="32px" viewBox="0 0 32 32" version="1.1" xmlns="http://www.w3.org/2000/svg" xmlns:xlink="http://www.w3.org/1999/xlink">
    <!-- Generator: Sketch 48.2 (47327) - http://www.bohemiancoding.com/sketch -->
    <title>icon-facebook</title>
    <desc>Created with Sketch.</desc>
    <defs></defs>
    <g id="maggie-home-05" stroke="none" stroke-width="1" fill="none" fill-rule="evenodd" transform="translate(-1169.000000, -50.000000)">
        <g id="icon-facebook" transform="translate(1169.000000, 50.000000)">
            <g id="Layer_1">
                <path d="M13.7413333,24.704 L17.3381333,24.704 L17.3381333,15.9989333 L19.7376,15.9989333 L20.0554667,12.9994667 L17.3381333,12.9994667 L17.3418667,11.4976 C17.3418667,10.7157333 17.4165333,10.296 18.5386667,10.296 L20.0384,10.296 L20.0384,7.296 L17.6384,7.296 C14.7557333,7.296 13.7413333,8.75146667 13.7413333,11.1984 L13.7413333,12.9994667 L11.9445333,12.9994667 L11.9445333,15.9994667 L13.7413333,15.9994667 L13.7413333,24.704 L13.7413333,24.704 Z M16,32 C7.16373333,32 0,24.8362667 0,16 C0,7.1632 7.16373333,0 16,0 C24.8362667,0 32,7.1632 32,16 C32,24.8362667 24.8362667,32 16,32 Z" id="Shape" fill="#3A589B"></path>
                <path d="M13.7413333,24.704 L17.3381333,24.704 L17.3381333,15.9989333 L19.7376,15.9989333 L20.0554667,12.9994667 L17.3381333,12.9994667 L17.3418667,11.4976 C17.3418667,10.7157333 17.4165333,10.296 18.5386667,10.296 L20.0384,10.296 L20.0384,7.296 L17.6384,7.296 C14.7557333,7.296 13.7413333,8.75146667 13.7413333,11.1984 L13.7413333,12.9994667 L11.9445333,12.9994667 L11.9445333,15.9994667 L13.7413333,15.9994667 L13.7413333,24.704 L13.7413333,24.704 Z" id="Path" fill="#FFFFFF"></path>
            </g>
        </g>
    </g>
</svg>