<?xml version="1.0" encoding="UTF-8"?>
<svg width="28px" height="28px" viewBox="0 0 28 28" version="1.1" xmlns="http://www.w3.org/2000/svg" xmlns:xlink="http://www.w3.org/1999/xlink">
    <!-- Generator: Sketch 48.2 (47327) - http://www.bohemiancoding.com/sketch -->
    <title>JinAndCo logo</title>
    <desc>Created with Sketch.</desc>
    <defs></defs>
    <g id="maggie-home-05" stroke="none" stroke-width="1" fill="none" fill-rule="evenodd" transform="translate(-1177.000000, -1576.000000)">
        <g id="JinAndCo-logo" transform="translate(1177.000000, 1576.000000)">
            <rect id="Rectangle-path" fill="#0F1031" x="0.00028" y="0" width="27.99944" height="28"></rect>
            <g id="Group" transform="translate(4.480000, 4.480000)" fill="#FFFFFF">
                <path d="M0.6909,3.97334 L1.25216,3.97334 C1.4161,3.97334 1.52628,3.94268 1.5827,3.88108 C1.63898,3.81948 1.66726,3.7324 1.66726,3.6197 L1.66726,0.07588 L3.3509,0.07588 L3.3509,3.9039 C3.3509,4.3806 3.24184,4.71632 3.024,4.91106 C2.80616,5.10594 2.45896,5.2031 1.98254,5.2031 L0.69104,5.2031 L0.69104,3.97334 L0.6909,3.97334 Z" id="Shape"></path>
                <polygon id="Shape" points="4.64198 0.07588 6.37952 0.07588 6.37952 5.20324 4.64198 5.20324"></polygon>
                <polygon id="Shape" points="7.686 0.07588 9.03126 0.07588 10.44554 2.05142 10.44554 0.07588 12.05218 0.07588 12.05218 5.20324 10.69922 5.20324 9.2925 3.2354 9.2925 5.20324 7.686 5.20324"></polygon>
                <path d="M2.02062,6.90914 L3.2508,6.90914 L5.19568,12.0365 L3.5812,12.0365 L3.41222,11.57534 L1.85934,11.57534 L1.69008,12.0365 L0.07602,12.0365 L2.02062,6.90914 L2.02062,6.90914 Z M2.98158,10.44526 L2.63592,9.54576 L2.2897,10.44526 L2.98158,10.44526 L2.98158,10.44526 Z" id="Shape"></path>
                <polygon id="Shape" points="6.07964 6.90914 7.4249 6.90914 8.83918 8.88482 8.83918 6.90914 10.44582 6.90914 10.44582 12.0365 9.09272 12.0365 7.686 10.06852 7.686 12.0365 6.07964 12.0365"></polygon>
                <path d="M11.7523,12.0365 L11.7523,6.90914 L13.17428,6.90914 C13.65602,6.90914 14.0854,6.9629 14.46186,7.07056 C14.83846,7.17822 15.15612,7.33978 15.41512,7.55496 C15.67398,7.77014 15.8711,8.03796 16.00704,8.358 C16.14298,8.6786 16.21074,9.0489 16.21074,9.4689 C16.21074,9.88918 16.14298,10.25934 16.00704,10.57966 C15.8711,10.89998 15.67398,11.1678 15.41512,11.38312 C15.15612,11.59816 14.8386,11.76098 14.46186,11.87116 C14.0854,11.98148 13.65602,12.0365 13.17428,12.0365 L11.7523,12.0365 L11.7523,12.0365 Z M13.38974,10.57588 C13.77404,10.57588 14.07112,10.48488 14.2814,10.30302 C14.49154,10.12102 14.59654,9.84298 14.59654,9.4689 C14.59654,9.09496 14.49154,8.81832 14.2814,8.63884 C14.07112,8.4595 13.77404,8.36962 13.38974,8.36962 L13.38974,10.57588 L13.38974,10.57588 Z" id="Shape"></path>
                <path d="M0.38346,16.30986 C0.38346,15.8998 0.45514,15.52978 0.59878,15.1991 C0.742,14.86842 0.93688,14.5852 1.18286,14.34944 C1.42884,14.11382 1.71584,13.93322 2.04372,13.80764 C2.3716,13.6822 2.72034,13.61948 3.0891,13.61948 C3.38142,13.61948 3.64112,13.64748 3.86932,13.7039 C4.09724,13.76046 4.29324,13.8243 4.45746,13.89612 C4.64702,13.97788 4.8111,14.0679 4.94956,14.16506 L4.14232,15.58718 C4.06028,15.52586 3.97026,15.46706 3.87338,15.4105 C3.78616,15.36948 3.682,15.32972 3.56188,15.29122 C3.44134,15.25272 3.30442,15.23354 3.1507,15.23354 C2.99166,15.23354 2.84564,15.26182 2.7125,15.3181 C2.57922,15.37424 2.46274,15.45124 2.36264,15.54868 C2.26296,15.64598 2.1847,15.75994 2.12814,15.8907 C2.07172,16.02132 2.04358,16.16104 2.04358,16.30958 C2.04358,16.45826 2.07284,16.59784 2.13206,16.72832 C2.19072,16.85922 2.2715,16.97332 2.37412,17.07048 C2.4766,17.16778 2.597,17.24478 2.73532,17.30106 C2.87364,17.35748 3.02498,17.38562 3.18906,17.38562 C3.35272,17.38562 3.49916,17.36532 3.62726,17.32402 C3.75508,17.28314 3.86274,17.23708 3.94996,17.1857 C4.05244,17.1297 4.14218,17.06292 4.2189,16.98592 L5.02614,18.40818 C4.88782,18.52074 4.72388,18.62098 4.53432,18.70806 C4.37024,18.77974 4.17284,18.84638 3.94226,18.90784 C3.71182,18.96916 3.44764,18.99996 3.1507,18.99996 C2.751,18.99996 2.38196,18.93458 2.04358,18.80424 C1.70548,18.67348 1.41316,18.49022 1.16718,18.25432 C0.92148,18.0187 0.72926,17.73562 0.5908,17.40522 C0.45248,17.07482 0.38346,16.70956 0.38346,16.30986 L0.38346,16.30986 Z" id="Shape"></path>
                <path d="M5.41072,16.30986 C5.41072,15.94082 5.48114,15.5925 5.62226,15.26434 C5.7631,14.93646 5.95518,14.65058 6.19878,14.40726 C6.4421,14.16394 6.7277,13.97172 7.05572,13.83074 C7.38374,13.68976 7.73234,13.61948 8.1011,13.61948 C8.47042,13.61948 8.8186,13.68962 9.14662,13.83074 C9.47464,13.97172 9.76052,14.16394 10.00398,14.40726 C10.2473,14.65058 10.43938,14.93646 10.5805,15.26434 C10.72134,15.5925 10.79176,15.94082 10.79176,16.30986 C10.79176,16.6789 10.72134,17.02736 10.5805,17.35524 C10.43938,17.6834 10.2473,17.969 10.00398,18.21232 C9.76066,18.45592 9.47478,18.64786 9.14662,18.78884 C8.81874,18.92996 8.47042,19.00024 8.1011,19.00024 C7.73234,19.00024 7.38374,18.92996 7.05572,18.78884 C6.72784,18.64786 6.44224,18.45592 6.19878,18.21232 C5.95518,17.969 5.7631,17.6834 5.62226,17.35524 C5.48128,17.02736 5.41072,16.6789 5.41072,16.30986 L5.41072,16.30986 Z M7.02492,16.30986 C7.02492,16.45854 7.0532,16.59812 7.10948,16.7286 C7.16604,16.8595 7.2429,16.9736 7.34034,17.07076 C7.4375,17.16806 7.5516,17.24506 7.68208,17.30134 C7.8127,17.35776 7.95228,17.3859 8.10096,17.3859 C8.24964,17.3859 8.38922,17.3579 8.52012,17.30134 C8.65088,17.24506 8.76484,17.16806 8.86214,17.07076 C8.95958,16.9736 9.0363,16.85936 9.09272,16.7286 C9.149,16.59798 9.17728,16.45854 9.17728,16.30986 C9.17728,16.16118 9.149,16.02146 9.09272,15.89098 C9.0363,15.76008 8.95944,15.64626 8.86214,15.54896 C8.7647,15.45152 8.65088,15.37452 8.52012,15.31838 C8.38922,15.2621 8.24964,15.23382 8.10096,15.23382 C7.95228,15.23382 7.8127,15.2621 7.68208,15.31838 C7.55146,15.37452 7.4375,15.45152 7.34034,15.54896 C7.2429,15.64626 7.1659,15.76022 7.10948,15.89098 C7.0532,16.02146 7.02492,16.16132 7.02492,16.30986 L7.02492,16.30986 Z" id="Shape"></path>
            </g>
        </g>
    </g>
</svg>