<?xml version="1.0" encoding="UTF-8"?>
<svg width="32px" height="32px" viewBox="0 0 32 32" version="1.1" xmlns="http://www.w3.org/2000/svg" xmlns:xlink="http://www.w3.org/1999/xlink">
    <!-- Generator: Sketch 48.2 (47327) - http://www.bohemiancoding.com/sketch -->
    <title>linkedin</title>
    <desc>Created with Sketch.</desc>
    <defs></defs>
    <g id="maggie-blog-02" stroke="none" stroke-width="1" fill="none" fill-rule="evenodd" transform="translate(-327.000000, -1132.000000)">
        <g id="linkedin" transform="translate(327.000000, 1132.000000)">
            <circle id="Oval-1-Copy-5" fill="#0976B4" cx="16" cy="16" r="16"></circle>
            <path d="M9.76698413,11.8705545 C10.8684952,11.8705545 11.761473,11.0562024 11.761473,10.0505417 C11.761473,9.04399123 10.8684952,8.22857143 9.76698413,8.22857143 C8.66440635,8.22857143 7.77142857,9.04399123 7.77142857,10.0505417 C7.77142857,11.0562024 8.66440635,11.8705545 9.76698413,11.8705545" id="Fill-182" fill="#FFFFFF"></path>
            <polygon id="Fill-183" fill="#FFFFFF" points="8.22857143 23.5783787 11.8072381 23.5783787 11.8072381 13.2571429 8.22857143 13.2571429"></polygon>
            <path d="M16.8299429,17.8379134 C16.8299429,16.6542912 17.3899429,15.4968293 18.7289651,15.4968293 C20.0679873,15.4968293 20.3972317,16.6542912 20.3972317,17.8096175 L20.3972317,23.4465495 L23.9598984,23.4465495 L23.9598984,17.5791573 C23.9598984,13.5027701 21.5502984,12.8 20.0679873,12.8 C18.5869206,12.8 17.7700317,13.3009618 16.8299429,14.5148375 L16.8299429,13.1253137 L13.2571429,13.1253137 L13.2571429,23.4465495 L16.8299429,23.4465495 L16.8299429,17.8379134 Z" id="Fill-184" fill="#FFFFFF"></path>
        </g>
    </g>
</svg>