<?xml version="1.0" encoding="UTF-8"?>
<svg width="32px" height="32px" viewBox="0 0 32 32" version="1.1" xmlns="http://www.w3.org/2000/svg" xmlns:xlink="http://www.w3.org/1999/xlink">
    <!-- Generator: Sketch 48.2 (47327) - http://www.bohemiancoding.com/sketch -->
    <title>mail</title>
    <desc>Created with Sketch.</desc>
    <defs></defs>
    <g id="maggie-blog-02" stroke="none" stroke-width="1" fill="none" fill-rule="evenodd" transform="translate(-449.000000, -1119.000000)">
        <g id="mail" transform="translate(449.000000, 1119.000000)">
            <circle id="Oval-1-Copy-4" fill="#71A64A" cx="16" cy="16" r="16"></circle>
            <g id="envelope" transform="translate(8.000000, 10.000000)" fill="#FFFFFF" fill-rule="nonzero">
                <path d="M16,3.86871715 L16,10.63624 C16,11.0115467 15.8602005,11.3326668 15.5806014,11.5996001 C15.3010023,11.8665334 14.9646454,12 14.5715306,12 L1.42961217,12 C1.03649739,12 0.700140466,11.8665334 0.42054139,11.5996001 C0.140942314,11.3326668 0.00114277552,11.0115467 0.00114277552,10.63624 L0.00114277552,3.86871715 C0.263219294,4.14728787 0.563769255,4.39458302 0.902792658,4.61060261 C3.05730543,6.00854757 4.53643787,6.98863645 5.34018999,7.55086925 C5.67921339,7.78943634 5.95462229,7.97563505 6.16641668,8.10946536 C6.37821108,8.24329568 6.65933386,8.37967169 7.00978502,8.51859338 C7.36023617,8.65751506 7.6874509,8.72697591 7.99142918,8.72697591 L8.00971359,8.72697591 C8.31293003,8.72697591 8.64014475,8.65751506 8.99135776,8.51859338 C9.34257077,8.37967169 9.62369355,8.24329568 9.83472609,8.10946536 C10.0457586,7.97563505 10.3211675,7.78943634 10.6609528,7.55086925 C11.67269,6.85189677 13.1548699,5.87180789 15.1074923,4.61060261 C15.4465157,4.38876431 15.7440183,4.14146916 16,3.86871715 Z M16,1.3626717 C16,1.81143967 15.8541057,2.2405695 15.562317,2.65006118 C15.2705283,3.05955286 14.9075066,3.4090391 14.4732519,3.6985199 C12.2356975,5.18156348 10.843035,6.10491994 10.2952646,6.46858929 C10.2358403,6.50859291 10.1093731,6.59514622 9.91586315,6.7282492 C9.72235317,6.86135218 9.56160274,6.96936197 9.43361188,7.05227858 C9.30562103,7.13519519 9.15096541,7.22756721 8.96964503,7.32939462 C8.78832464,7.43122204 8.61728924,7.50795627 8.45653882,7.55959732 C8.2957884,7.61123836 8.14684665,7.63669522 8.00971359,7.63596788 L7.99142918,7.63596788 C7.85429612,7.63596788 7.70535438,7.61051102 7.54460396,7.55959732 C7.38385353,7.50868361 7.21281813,7.43194938 7.03149775,7.32939462 C6.85017737,7.22683987 6.69552175,7.13446785 6.56753089,7.05227858 C6.43954003,6.97008931 6.27878961,6.86207952 6.08527962,6.7282492 C5.89176964,6.59441888 5.76530248,6.50786558 5.70587815,6.46858929 C5.16420256,6.10491994 4.38444873,5.58632746 3.36661667,4.91281183 C2.34878461,4.23929621 1.73854249,3.83453223 1.53589029,3.6985199 C1.16715473,3.45995281 0.81898912,3.13192306 0.491393472,2.71443065 C0.163797824,2.29693825 -4.23737896e-17,1.90926673 0,1.55141609 C0,1.10846683 0.123419756,0.73897878 0.370259267,0.442951934 C0.617098779,0.146925089 0.969835488,-0.000724664648 1.4284694,2.67403929e-06 L14.5703878,2.67403929e-06 C14.9574078,2.67403929e-06 15.292241,0.133469323 15.5748875,0.400402621 C15.857534,0.667335919 15.9988572,0.98845595 15.9988572,1.36376271 L16,1.3626717 Z" id="Shape"></path>
            </g>
        </g>
    </g>
</svg>