<?xml version="1.0" encoding="UTF-8"?>
<svg width="25px" height="31px" viewBox="0 0 25 31" version="1.1" xmlns="http://www.w3.org/2000/svg" xmlns:xlink="http://www.w3.org/1999/xlink">
    <!-- Generator: Sketch 48.2 (47327) - http://www.bohemiancoding.com/sketch -->
    <title>menu</title>
    <desc>Created with Sketch.</desc>
    <defs></defs>
    <g id="maggie-home-05" stroke="none" stroke-width="1" fill="none" fill-rule="evenodd" transform="translate(-235.000000, -52.000000)">
        <g id="menu" transform="translate(235.000000, 52.500000)">
            <path d="M24.244,16.009 L1.75,16.009 C1.337,16.009 1,16.369 1,16.81 L1,20.231 C1,20.654 1.337,21 1.75,21 L24.244,21 C24.658,21 24.994,20.654 24.994,20.23 L24.994,16.81 C24.994,16.369 24.658,16.009 24.244,16.009 Z M24.244,8.009 L1.75,8.009 C1.337,8.009 1,8.369 1,8.81 L1,12.231 C1,12.655 1.337,13 1.75,13 L24.244,13 C24.658,13 24.994,12.655 24.994,12.231 L24.994,8.81 C24.994,8.369 24.658,8.009 24.244,8.009 Z M24.244,0.009 L1.75,0.009 C1.337,0.009 1,0.369 1,0.81 L1,4.23 C1,4.653 1.337,4.999 1.75,4.999 L24.244,4.999 C24.658,4.999 24.994,4.653 24.994,4.23 L24.994,0.81 C24.994,0.369 24.658,0.009 24.244,0.009 Z" id="Shape" fill="#E12943"></path>
            <path d="M4.85200005,25.016 L5.32800005,25.016 L5.32800005,30 L4.79600005,30 L4.79600005,26.297 L3.17900005,30 L2.77300005,30 L1.14200005,26.325 L1.14900005,30 L0.617000048,30 L0.617000048,25.016 L1.09300005,25.016 L2.98300005,29.314 L4.85200005,25.016 Z M7.96000002,30 L7.96000002,25.016 L11.11,25.016 L11.11,25.492 L8.52700002,25.492 L8.52700002,27.228 L10.97,27.228 L10.97,27.711 L8.52700002,27.711 L8.52700002,29.524 L11.11,29.524 L11.11,30 L7.96000002,30 Z M16.927,25.016 L17.473,25.016 L17.473,30 L17.025,30 L14.015,25.989 L14.015,30 L13.476,30 L13.476,25.016 L13.917,25.016 L16.927,29.027 L16.927,25.016 Z M20.5635,29.5485 C20.2298316,29.210165 20.063,28.70967 20.063,28.047 L20.063,25.016 L20.63,25.016 L20.63,28.096 C20.63,28.5813358 20.7489988,28.9476654 20.987,29.195 C21.2250012,29.4423346 21.577331,29.566 22.044,29.566 C22.5060023,29.566 22.8548321,29.4423346 23.0905,29.195 C23.3261678,28.9476654 23.444,28.5813358 23.444,28.096 L23.444,25.016 L24.018,25.016 L24.018,28.047 C24.018,28.7050033 23.8500017,29.2043316 23.514,29.545 C23.1779983,29.8856684 22.6880032,30.056 22.044,30.056 C21.3906634,30.056 20.8971683,29.886835 20.5635,29.5485 Z" id="Menu" fill="#FE65B3"></path>
        </g>
    </g>
</svg>