<?xml version="1.0" encoding="UTF-8"?>
<svg width="32px" height="32px" viewBox="0 0 32 32" version="1.1" xmlns="http://www.w3.org/2000/svg" xmlns:xlink="http://www.w3.org/1999/xlink">
    <!-- Generator: Sketch 48.2 (47327) - http://www.bohemiancoding.com/sketch -->
    <title>pinterest</title>
    <desc>Created with Sketch.</desc>
    <defs></defs>
    <g id="maggie-blog-02" stroke="none" stroke-width="1" fill="none" fill-rule="evenodd" transform="translate(-376.000000, -1132.000000)">
        <g id="pinterest" transform="translate(376.000000, 1132.000000)">
            <circle id="Oval-1-Copy-4" fill="#CC2127" cx="16" cy="16" r="16"></circle>
            <path d="M8.22857143,15.7796982 C8.22857143,19.0760799 10.2187937,21.9070922 13.0611048,23.1364505 C13.0406603,22.5781852 13.0605714,21.912431 13.201727,21.3087854 C13.356927,20.6572682 14.2358603,16.9293297 14.2358603,16.9293297 C14.2358603,16.9293297 13.9791492,16.4155548 13.9791492,15.6570827 C13.9791492,14.4672318 14.6694603,13.5767122 15.5274159,13.5767122 C16.2579048,13.5767122 16.6109714,14.1269693 16.6109714,14.7845372 C16.6109714,15.5191625 16.1427048,16.617897 15.900927,17.6356591 C15.7007492,18.4880949 16.329727,19.1841025 17.1695492,19.1841025 C18.6895492,19.1841025 19.7133714,17.2284831 19.7133714,14.910178 C19.7133714,13.1496045 18.5299048,11.8303755 16.3736381,11.8303755 C13.9389714,11.8303755 12.4200381,13.6486086 12.4200381,15.6800397 C12.4200381,16.3799625 12.6269714,16.8745176 12.9507048,17.2562451 C13.0991492,17.4318932 13.1192381,17.5027219 13.0650159,17.7050641 C13.0259048,17.8520604 12.9395048,18.2079835 12.9023492,18.3501747 C12.8491937,18.5535848 12.6836825,18.6249474 12.5000381,18.5502035 C11.3789714,18.0926644 10.8555937,16.8627721 10.8555937,15.4805448 C10.8555937,13.1969422 12.779327,10.4591818 16.5939048,10.4591818 C19.6602159,10.4591818 21.6772825,12.6803199 21.6772825,15.0626911 C21.6772825,18.2172375 19.9258159,20.5716687 17.3451937,20.5716687 C16.4781714,20.5716687 15.6621714,20.1023841 15.3843048,19.570635 C15.3843048,19.570635 14.9165714,21.4207233 14.8189714,21.7794937 C14.6504381,22.3900798 14.3258159,23.000132 14.0250159,23.4804502 C14.7242159,23.680479 15.4634159,23.7879677 16.2285714,23.7879677 C20.646527,23.7879677 24.2285714,20.2022205 24.2285714,15.7796982 C24.2285714,11.3571758 20.646527,7.77142857 16.2285714,7.77142857 C11.8106159,7.77142857 8.22857143,11.3571758 8.22857143,15.7796982 Z" id="Fill-15" fill="#FFFFFF"></path>
        </g>
    </g>
</svg>