<?xml version="1.0" encoding="UTF-8"?>
<svg width="20px" height="23px" viewBox="0 0 20 23" version="1.1" xmlns="http://www.w3.org/2000/svg" xmlns:xlink="http://www.w3.org/1999/xlink">
    <!-- Generator: Sketch 48.2 (47327) - http://www.bohemiancoding.com/sketch -->
    <title>shopping-bag</title>
    <desc>Created with Sketch.</desc>
    <defs></defs>
    <g id="maggie-roller-coaster-02" stroke="none" stroke-width="1" fill="none" fill-rule="evenodd" transform="translate(-1004.000000, -1185.000000)">
        <path d="M1023.318,1190.34235 C1023.30597,1189.1968 1022.37354,1188.26755 1021.22916,1188.26755 L1017.7669,1188.26755 C1017.48594,1186.43921 1015.9027,1185 1013.99761,1185 C1012.09201,1185 1010.50833,1186.43921 1010.22729,1188.26755 L1006.7698,1188.26755 C1005.62574,1188.26755 1004.6936,1189.19683 1004.6816,1190.34239 L1004.00086,1205.8591 C1004,1207.05735 1004.93704,1208 1006.08886,1208 L1021.91122,1208 C1023.06297,1208 1024,1207.05762 1024,1205.89908 C1023.99999,1205.88589 1023.318,1190.34235 1023.318,1190.34235 Z M1013.99761,1186.78961 C1014.92054,1186.78961 1015.70182,1187.41431 1015.95255,1188.26753 L1012.04168,1188.26753 C1012.29254,1187.41432 1013.07421,1186.78961 1013.99761,1186.78961 Z M1021.91121,1206.21231 L1006.08886,1206.21231 C1005.91687,1206.21231 1005.78119,1206.08168 1005.7743,1205.91352 L1006.45461,1190.40588 C1006.45519,1190.39273 1006.45547,1190.37729 1006.45547,1190.36412 C1006.45547,1190.19219 1006.59352,1190.05525 1006.76978,1190.05525 L1010.1756,1190.05525 L1010.1756,1193.32538 C1010.1756,1193.81957 1010.57178,1194.22018 1011.06166,1194.22018 C1011.55155,1194.22018 1011.94773,1193.81957 1011.94773,1193.32538 L1011.94773,1190.05525 L1016.02899,1190.05525 L1016.02899,1193.32538 C1016.02899,1193.81957 1016.42517,1194.22018 1016.91506,1194.22018 C1017.40494,1194.22018 1017.80112,1193.81957 1017.80112,1193.32538 L1017.80112,1190.05525 L1021.22916,1190.05525 C1021.40574,1190.05525 1021.54407,1190.19197 1021.54407,1190.3639 C1021.54407,1190.37709 1021.54435,1190.3913 1021.54493,1190.4045 L1022.22567,1205.91307 C1022.21878,1206.08118 1022.08313,1206.21231 1021.91121,1206.21231 Z" id="shopping-bag" fill="#F9F8F5"></path>
    </g>
</svg>