<?xml version="1.0" encoding="UTF-8"?>
<svg width="32px" height="32px" viewBox="0 0 32 32" version="1.1" xmlns="http://www.w3.org/2000/svg" xmlns:xlink="http://www.w3.org/1999/xlink">
    <!-- Generator: Sketch 48.2 (47327) - http://www.bohemiancoding.com/sketch -->
    <title>twitter</title>
    <desc>Created with Sketch.</desc>
    <defs></defs>
    <g id="maggie-blog-02" stroke="none" stroke-width="1" fill="none" fill-rule="evenodd" transform="translate(-282.000000, -1137.000000)">
        <g id="twitter" transform="translate(282.000000, 1137.000000)">
            <circle id="Oval-1" fill="#55ACEE" cx="16" cy="16" r="16"></circle>
            <path d="M23.3289752,9.88028952 C22.8773689,10.1695594 21.8404876,10.5899073 21.3291276,10.5899073 L21.3291276,10.5907708 C20.7452343,9.9808 19.9231898,9.6 19.0115149,9.6 C17.2408381,9.6 15.8050235,11.0358146 15.8050235,12.8058006 C15.8050235,13.0517232 15.8335187,13.2916013 15.8861917,13.5216356 L15.8856737,13.5216356 C13.4837841,13.4586006 10.8568686,12.25472 9.27546921,10.1942552 C8.30317714,11.8772013 9.14456381,13.7489067 10.247934,14.4308927 C9.87024254,14.4593879 9.17495873,14.3873727 8.84769524,14.0680533 C8.82576254,15.1850667 9.3628546,16.6650921 11.3212546,17.2020114 C10.9440813,17.4049321 10.2764292,17.3467327 9.98612317,17.3035581 C10.0880152,18.2464914 11.4084673,19.4792127 12.8523987,19.4792127 C12.3377575,20.0745041 10.4014629,21.1542146 8.22857143,20.8107175 C9.70427937,21.7085765 11.4241829,22.2285714 13.2445968,22.2285714 C18.4177778,22.2285714 22.435261,18.0359721 22.2190425,12.8638273 C22.218179,12.8581283 22.218179,12.8524292 22.217661,12.8462121 C22.218179,12.8329143 22.2190425,12.8196165 22.2190425,12.8058006 C22.2190425,12.7897397 22.217661,12.7745422 22.2171429,12.7589994 C22.6880914,12.4369168 23.3199949,11.8671848 23.7714286,11.1173283 C23.5096178,11.2615314 22.7241854,11.5502832 21.9933257,11.621953 C22.4623746,11.3687771 23.157313,10.5396521 23.3289752,9.88028952" id="Fill-1" fill="#FFFFFF"></path>
        </g>
    </g>
</svg>